# xmcd
#
# Track frame offsets: 
#        150
#        12852
#        24747
#        46650
#        58239
#        69337
#        81220
#        90823
#        102688
#        116416
#
# Disc length: 1681 seconds
#
# Revision: 0
# Processed by: cddbd v1.5.2PL0 Copyright (c) Steve Scherf et al.
# Submitted via: ExactAudioCopy v0.90a11
#
DISCID=75068f0a
DTITLE=Brenda Lee - Country Music Legends CD1
DYEAR=1900
DGENRE=
TTITLE0=All Alone Am I
TTITLE1=As Usual
TTITLE2=Big Four Poster Bed
TTITLE3=Break It To Me Gently
TTITLE4=Fool #1
TTITLE5=I'm Sorry
TTITLE6=Rockin' Around The Christmas Tree
TTITLE7=Sweet Nothin's
TTITLE8=Nobody Wins
TTITLE9=Coming On Sunday
EXTD=
EXTT0=
EXTT1=
EXTT2=
EXTT3=
EXTT4=
EXTT5=
EXTT6=
EXTT7=
EXTT8=
EXTT9=
PLAYORDER=
